<svg xmlns="http://www.w3.org/2000/svg" xmlns:xlink="http://www.w3.org/1999/xlink" contentStyleType="text/css" data-diagram-type="DESCRIPTION" height="2365.2px" preserveAspectRatio="none" style="width:1294px;height:2365px;background:#FFFFFF;" version="1.1" viewBox="0 0 1294 2365" width="1294.65px" zoomAndPan="magnify"><?plantuml 1.2026.3beta4?><defs/><g><!--cluster TripCentral--><g class="cluster" data-qualified-name="TripCentral" data-source-line="42" id="ent0011"><rect fill="#FAFAFA" height="1971" rx="3.375" ry="3.375" style="stroke:#000000;stroke-width:1.35;" width="899.7615" x="376.0965" y="252.18"/><text fill="#000000" font-family="sans-serif" font-size="18.9" font-weight="700" lengthAdjust="spacing" textLength="119.9522" x="766.0011" y="272.4234">TripCentral</text></g><!--cluster P1--><g class="cluster" data-qualified-name="TripCentral.P1" data-source-line="44" id="ent0012"><rect fill="#FAFAFA" height="510.3" rx="3.375" ry="3.375" style="stroke:#000000;stroke-width:1.35;" width="512.6625" x="727.083" y="846.18"/><text fill="#000000" font-family="sans-serif" font-size="18.9" font-weight="700" lengthAdjust="spacing" textLength="298.8378" x="833.9954" y="866.4234">User Management &amp; Socials</text></g><!--cluster P2--><g class="cluster" data-qualified-name="TripCentral.P2" data-source-line="55" id="ent0021"><rect fill="#FAFAFA" height="503.55" rx="3.375" ry="3.375" style="stroke:#000000;stroke-width:1.35;" width="825.9435" x="417.5145" y="310.23"/><text fill="#000000" font-family="sans-serif" font-size="18.9" font-weight="700" lengthAdjust="spacing" textLength="171.7796" x="744.5965" y="330.4734">Mapping &amp; Lists</text></g><!--cluster P3--><g class="cluster" data-qualified-name="TripCentral.P3" data-source-line="66" id="ent0030"><rect fill="#FAFAFA" height="801.9" rx="3.375" ry="3.375" style="stroke:#000000;stroke-width:1.35;" width="554.283" x="408.4965" y="1388.88"/><text fill="#000000" font-family="sans-serif" font-size="18.9" font-weight="700" lengthAdjust="spacing" textLength="293.7344" x="538.7708" y="1409.1234">Collaboration &amp; Community</text></g><!--entity UC_SignUp--><g class="entity" data-qualified-name="TripCentral.P1.UC_SignUp" data-source-line="45" id="ent0013"><ellipse cx="850.2324" cy="1317.3265" fill="#FFFFFF" rx="48.3324" ry="17.3845" style="stroke:#000000;stroke-width:0.675;"/><text fill="#000000" font-family="sans-serif" font-size="16.2" lengthAdjust="spacing" textLength="62.6247" x="818.92" y="1322.0304">Sign Up</text></g><!--entity UC_Login--><g class="entity" data-qualified-name="TripCentral.P1.UC_Login" data-source-line="46" id="ent0014"><ellipse cx="850.2335" cy="1149.9265" fill="#FFFFFF" rx="38.9915" ry="17.3845" style="stroke:#000000;stroke-width:0.675;"/><text fill="#000000" font-family="sans-serif" font-size="16.2" lengthAdjust="spacing" textLength="49.4147" x="825.5261" y="1154.6304">Log In</text></g><!--entity UC_VerifyEmail--><g class="entity" data-qualified-name="TripCentral.P1.UC_VerifyEmail" data-source-line="47" id="ent0015"><ellipse cx="1134.068" cy="1317.3328" fill="#FFFFFF" rx="71.9015" ry="17.6203" style="stroke:#000000;stroke-width:0.675;"/><text fill="#000000" font-family="sans-serif" font-size="16.2" lengthAdjust="spacing" textLength="97.5955" x="1085.2703" y="1322.0367">Verify Email</text></g><!--entity UC_VerifyPwd--><g class="entity" data-qualified-name="TripCentral.P1.UC_VerifyPwd" data-source-line="48" id="ent0016"><ellipse cx="1134.066" cy="1195.8243" fill="#FFFFFF" rx="84.0765" ry="20.0553" style="stroke:#000000;stroke-width:0.675;"/><text fill="#000000" font-family="sans-serif" font-size="16.2" lengthAdjust="spacing" textLength="129.3311" x="1069.4005" y="1200.5282">Verify Password</text></g><!--entity UC_Profile--><g class="entity" data-qualified-name="TripCentral.P1.UC_Profile" data-source-line="49" id="ent0017"><ellipse cx="850.2283" cy="989.2824" fill="#FFFFFF" rx="89.3143" ry="21.1029" style="stroke:#000000;stroke-width:0.675;"/><text fill="#000000" font-family="sans-serif" font-size="16.2" lengthAdjust="spacing" textLength="142.0901" x="779.1833" y="993.9863">View / Edit Profile</text></g><!--entity UC_SearchUsers--><g class="entity" data-qualified-name="TripCentral.P1.UC_SearchUsers" data-source-line="50" id="ent0018"><ellipse cx="850.2291" cy="912.3271" fill="#FFFFFF" rx="75.1806" ry="18.2761" style="stroke:#000000;stroke-width:0.675;"/><text fill="#000000" font-family="sans-serif" font-size="16.2" lengthAdjust="spacing" textLength="106.5261" x="796.966" y="917.031">Search Users</text></g><!--entity UC_InviteAction--><g class="entity" data-qualified-name="TripCentral.P1.UC_InviteAction" data-source-line="51" id="ent0019"><ellipse cx="850.2278" cy="1233.6347" fill="#FFFFFF" rx="84.1568" ry="28.7732" style="stroke:#000000;stroke-width:0.675;"/><text fill="#000000" font-family="sans-serif" font-size="16.2" lengthAdjust="spacing" textLength="122.204" x="789.1258" y="1231.7794">Accept / Reject</text><text fill="#000000" font-family="sans-serif" font-size="16.2" lengthAdjust="spacing" textLength="76.4438" x="812.0059" y="1250.6372">Invitation</text></g><!--entity UC_Notifications--><g class="entity" data-qualified-name="TripCentral.P1.UC_Notifications" data-source-line="52" id="ent0020"><ellipse cx="850.2351" cy="1071.6364" fill="#FFFFFF" rx="101.5521" ry="23.5504" style="stroke:#000000;stroke-width:0.675;"/><text fill="#000000" font-family="sans-serif" font-size="16.2" lengthAdjust="spacing" textLength="170.6933" x="764.8884" y="1076.3403">Receive Notifications</text></g><!--entity UC_SearchLocations--><g class="entity" data-qualified-name="TripCentral.P2.UC_SearchLocations" data-source-line="56" id="ent0022"><ellipse cx="1134.0618" cy="377.7235" fill="#FFFFFF" rx="87.7848" ry="20.797" style="stroke:#000000;stroke-width:0.675;"/><text fill="#000000" font-family="sans-serif" font-size="16.2" lengthAdjust="spacing" textLength="138.404" x="1064.8598" y="382.4274">Search Locations</text></g><!--entity UC_ViewLocation--><g class="entity" data-qualified-name="TripCentral.P2.UC_ViewLocation" data-source-line="57" id="ent0023"><ellipse cx="542.1447" cy="600.485" fill="#FFFFFF" rx="103.0302" ry="23.846" style="stroke:#000000;stroke-width:0.675;"/><text fill="#000000" font-family="sans-serif" font-size="16.2" lengthAdjust="spacing" textLength="174.063" x="455.1132" y="605.189">View Location Details</text></g><!--entity UC_CreateList--><g class="entity" data-qualified-name="TripCentral.P2.UC_CreateList" data-source-line="58" id="ent0024"><ellipse cx="542.1476" cy="375.0265" fill="#FFFFFF" rx="66.0296" ry="17.3845" style="stroke:#000000;stroke-width:0.675;"/><text fill="#000000" font-family="sans-serif" font-size="16.2" lengthAdjust="spacing" textLength="87.6524" x="498.3214" y="379.7304">Create List</text></g><!--entity UC_EditList--><g class="entity" data-qualified-name="TripCentral.P2.UC_EditList" data-source-line="59" id="ent0025"><ellipse cx="542.149" cy="520.8265" fill="#FFFFFF" rx="49.8985" ry="17.3845" style="stroke:#000000;stroke-width:0.675;"/><text fill="#000000" font-family="sans-serif" font-size="16.2" lengthAdjust="spacing" textLength="64.8396" x="509.7292" y="525.5304">Edit List</text></g><!--entity UC_DeleteList--><g class="entity" data-qualified-name="TripCentral.P2.UC_DeleteList" data-source-line="60" id="ent0026"><ellipse cx="542.1458" cy="447.9265" fill="#FFFFFF" rx="65.3528" ry="17.3845" style="stroke:#000000;stroke-width:0.675;"/><text fill="#000000" font-family="sans-serif" font-size="16.2" lengthAdjust="spacing" textLength="86.6953" x="498.7982" y="452.6304">Delete List</text></g><!--entity UC_AddPlace--><g class="entity" data-qualified-name="TripCentral.P2.UC_AddPlace" data-source-line="61" id="ent0027"><ellipse cx="850.2327" cy="377.7332" fill="#FFFFFF" rx="86.2812" ry="20.4962" style="stroke:#000000;stroke-width:0.675;"/><text fill="#000000" font-family="sans-serif" font-size="16.2" lengthAdjust="spacing" textLength="134.7495" x="782.8579" y="382.4371">Add Place to List</text></g><!--entity UC_Sections--><g class="entity" data-qualified-name="TripCentral.P2.UC_Sections" data-source-line="62" id="ent0028"><ellipse cx="542.1415" cy="767.8844" fill="#FFFFFF" rx="101.947" ry="23.6294" style="stroke:#000000;stroke-width:0.675;"/><text fill="#000000" font-family="sans-serif" font-size="16.2" lengthAdjust="spacing" textLength="171.595" x="456.344" y="772.5883">Manage List Sections</text></g><!--entity UC_Reorder--><g class="entity" data-qualified-name="TripCentral.P2.UC_Reorder" data-source-line="63" id="ent0029"><ellipse cx="542.1516" cy="684.1783" fill="#FFFFFF" rx="92.0616" ry="21.6523" style="stroke:#000000;stroke-width:0.675;"/><text fill="#000000" font-family="sans-serif" font-size="16.2" lengthAdjust="spacing" textLength="148.6397" x="467.8318" y="688.8822">Reorder List Items</text></g><!--entity UC_InviteCollaborator--><g class="entity" data-qualified-name="TripCentral.P3.UC_InviteCollaborator" data-source-line="67" id="ent0031"><ellipse cx="542.1503" cy="1465.8334" fill="#FFFFFF" rx="81.0173" ry="29.3659" style="stroke:#000000;stroke-width:0.675;"/><text fill="#000000" font-family="sans-serif" font-size="16.2" lengthAdjust="spacing" textLength="87.5259" x="498.3873" y="1459.1409">Invite User</text><text fill="#000000" font-family="sans-serif" font-size="16.2" lengthAdjust="spacing" textLength="114.6656" x="484.8174" y="1477.9987">to Collaborate</text></g><!--entity UC_Chat--><g class="entity" data-qualified-name="TripCentral.P3.UC_Chat" data-source-line="68" id="ent0032"><ellipse cx="542.142" cy="1982.8737" fill="#FFFFFF" rx="76.095" ry="29.1402" style="stroke:#000000;stroke-width:0.675;"/><text fill="#000000" font-family="sans-serif" font-size="16.2" lengthAdjust="spacing" textLength="77.3771" x="503.4534" y="1975.841">Chat with</text><text fill="#000000" font-family="sans-serif" font-size="16.2" lengthAdjust="spacing" textLength="108.2979" x="487.993" y="1994.6988">Collaborators</text></g><!--entity UC_Propose--><g class="entity" data-qualified-name="TripCentral.P3.UC_Propose" data-source-line="69" id="ent0033"><ellipse cx="542.1411" cy="2147.5762" fill="#FFFFFF" rx="88.6761" ry="20.9752" style="stroke:#000000;stroke-width:0.675;"/><text fill="#000000" font-family="sans-serif" font-size="16.2" lengthAdjust="spacing" textLength="140.5556" x="471.8633" y="2152.2801">Propose Changes</text></g><!--entity UC_ApproveReject--><g class="entity" data-qualified-name="TripCentral.P3.UC_ApproveReject" data-source-line="70" id="ent0034"><ellipse cx="850.2284" cy="2140.8334" fill="#FFFFFF" rx="90.9479" ry="28.4209" style="stroke:#000000;stroke-width:0.675;"/><text fill="#000000" font-family="sans-serif" font-size="16.2" lengthAdjust="spacing" textLength="134.4806" x="782.9881" y="2139.5285">Approve / Reject</text><text fill="#000000" font-family="sans-serif" font-size="16.2" lengthAdjust="spacing" textLength="70.4637" x="814.9965" y="2158.3863">Changes</text></g><!--entity UC_ChangePerm--><g class="entity" data-qualified-name="TripCentral.P3.UC_ChangePerm" data-source-line="71" id="ent0035"><ellipse cx="542.151" cy="1656.1834" fill="#FFFFFF" rx="112.041" ry="28.4344" style="stroke:#000000;stroke-width:0.675;"/><text fill="#000000" font-family="sans-serif" font-size="16.2" lengthAdjust="spacing" textLength="167.0309" x="458.6355" y="1654.8572">Change Collaborator</text><text fill="#000000" font-family="sans-serif" font-size="16.2" lengthAdjust="spacing" textLength="88.2378" x="498.0321" y="1673.715">Permission</text></g><!--entity UC_RemoveCollaborator--><g class="entity" data-qualified-name="TripCentral.P3.UC_RemoveCollaborator" data-source-line="72" id="ent0036"><ellipse cx="542.1447" cy="1561.6813" fill="#FFFFFF" rx="69.9282" ry="28.9318" style="stroke:#000000;stroke-width:0.675;"/><text fill="#000000" font-family="sans-serif" font-size="16.2" lengthAdjust="spacing" textLength="66.469" x="508.9102" y="1554.3306">Remove</text><text fill="#000000" font-family="sans-serif" font-size="16.2" lengthAdjust="spacing" textLength="99.8578" x="492.2158" y="1573.1885">Collaborator</text></g><!--entity UC_MakePublic--><g class="entity" data-qualified-name="TripCentral.P3.UC_MakePublic" data-source-line="73" id="ent0037"><ellipse cx="542.1448" cy="1896.4824" fill="#FFFFFF" rx="84.3868" ry="20.1174" style="stroke:#000000;stroke-width:0.675;"/><text fill="#000000" font-family="sans-serif" font-size="16.2" lengthAdjust="spacing" textLength="130.0983" x="477.0956" y="1901.1863">Make List Public</text></g><!--entity UC_BrowsePublic--><g class="entity" data-qualified-name="TripCentral.P3.UC_BrowsePublic" data-source-line="74" id="ent0038"><ellipse cx="542.1426" cy="1743.9238" fill="#FFFFFF" rx="94.6041" ry="22.1608" style="stroke:#000000;stroke-width:0.675;"/><text fill="#000000" font-family="sans-serif" font-size="16.2" lengthAdjust="spacing" textLength="154.6277" x="464.8287" y="1748.6277">Browse Public Lists</text></g><!--entity UC_RateList--><g class="entity" data-qualified-name="TripCentral.P3.UC_RateList" data-source-line="75" id="ent0039"><ellipse cx="542.1462" cy="1820.8765" fill="#FFFFFF" rx="64.8942" ry="17.3845" style="stroke:#000000;stroke-width:0.675;"/><text fill="#000000" font-family="sans-serif" font-size="16.2" lengthAdjust="spacing" textLength="86.0467" x="499.1229" y="1825.5804">Rate a List</text></g><!--entity UC_SubmitReview--><g class="entity" data-qualified-name="TripCentral.P3.UC_SubmitReview" data-source-line="76" id="ent0040"><ellipse cx="542.1421" cy="2069.2818" fill="#FFFFFF" rx="80.8066" ry="19.4013" style="stroke:#000000;stroke-width:0.675;"/><text fill="#000000" font-family="sans-serif" font-size="16.2" lengthAdjust="spacing" textLength="121.144" x="481.5701" y="2073.9857">Submit Review</text></g><!--entity UC_DeleteReview--><g class="entity" data-qualified-name="TripCentral.P3.UC_DeleteReview" data-source-line="77" id="ent0041"><ellipse cx="850.2245" cy="2055.7735" fill="#FFFFFF" rx="79.145" ry="19.069" style="stroke:#000000;stroke-width:0.675;"/><text fill="#000000" font-family="sans-serif" font-size="16.2" lengthAdjust="spacing" textLength="116.9042" x="791.7724" y="2060.4774">Delete Review</text></g><!--entity Guest--><g class="entity" data-qualified-name="Guest" data-source-line="27" id="ent0002"><ellipse cx="542.1453" cy="2256.0525" fill="#FFFFFF" rx="10.8" ry="10.8" style="stroke:#000000;stroke-width:0.675;"/><path d="M542.1453,2266.8525 L542.1453,2303.3025 M524.5953,2277.6525 L559.6953,2277.6525 M542.1453,2303.3025 L524.5953,2323.5525 M542.1453,2303.3025 L559.6953,2323.5525" fill="none" style="stroke:#000000;stroke-width:0.675;"/><text fill="#000000" font-family="sans-serif" font-size="18.9" lengthAdjust="spacing" textLength="55.5095" x="514.3905" y="2343.1209">Guest</text></g><!--entity AuthUser--><g class="entity" data-qualified-name="AuthUser" data-source-line="28" id="ent0003"><ellipse cx="542.1488" cy="18.9" fill="#FFFFFF" rx="10.8" ry="10.8" style="stroke:#000000;stroke-width:0.675;"/><path d="M542.1488,29.7 L542.1488,66.15 M524.5988,40.5 L559.6988,40.5 M542.1488,66.15 L524.5988,86.4 M542.1488,66.15 L559.6988,86.4" fill="none" style="stroke:#000000;stroke-width:0.675;"/><text fill="#000000" font-family="sans-serif" font-size="18.9" lengthAdjust="spacing" textLength="133.5735" x="475.362" y="105.9684">Authenticated</text><text fill="#000000" font-family="sans-serif" font-size="18.9" lengthAdjust="spacing" textLength="43.0787" x="475.362" y="127.9692">User</text></g><!--entity Collaborator--><g class="entity" data-qualified-name="Collaborator" data-source-line="29" id="ent0004"><ellipse cx="277.3554" cy="228.3525" fill="#FFFFFF" rx="10.8" ry="10.8" style="stroke:#000000;stroke-width:0.675;"/><path d="M277.3554,239.1525 L277.3554,275.6025 M259.8054,249.9525 L294.9054,249.9525 M277.3554,275.6025 L259.8054,295.8525 M277.3554,275.6025 L294.9054,295.8525" fill="none" style="stroke:#000000;stroke-width:0.675;"/><text fill="#000000" font-family="sans-serif" font-size="18.9" lengthAdjust="spacing" textLength="116.5008" x="219.105" y="315.4209">Collaborator</text></g><!--entity SeniorCollab--><g class="entity" data-qualified-name="SeniorCollab" data-source-line="30" id="ent0005"><ellipse cx="66.3504" cy="2096.55" fill="#FFFFFF" rx="10.8" ry="10.8" style="stroke:#000000;stroke-width:0.675;"/><path d="M66.3504,2107.35 L66.3504,2143.8 M48.8004,2118.15 L83.9004,2118.15 M66.3504,2143.8 L48.8004,2164.05 M66.3504,2143.8 L83.9004,2164.05" fill="none" style="stroke:#000000;stroke-width:0.675;"/><text fill="#000000" font-family="sans-serif" font-size="18.9" lengthAdjust="spacing" textLength="60.1884" x="8.1" y="2183.6184">Senior</text><text fill="#000000" font-family="sans-serif" font-size="18.9" lengthAdjust="spacing" textLength="116.5008" x="8.1" y="2205.6192">Collaborator</text></g><!--entity JuniorCollab--><g class="entity" data-qualified-name="JuniorCollab" data-source-line="31" id="ent0006"><ellipse cx="66.3504" cy="217.35" fill="#FFFFFF" rx="10.8" ry="10.8" style="stroke:#000000;stroke-width:0.675;"/><path d="M66.3504,228.15 L66.3504,264.6 M48.8004,238.95 L83.9004,238.95 M66.3504,264.6 L48.8004,284.85 M66.3504,264.6 L83.9004,284.85" fill="none" style="stroke:#000000;stroke-width:0.675;"/><text fill="#000000" font-family="sans-serif" font-size="18.9" lengthAdjust="spacing" textLength="54.116" x="8.1" y="304.4184">Junior</text><text fill="#000000" font-family="sans-serif" font-size="18.9" lengthAdjust="spacing" textLength="116.5008" x="8.1" y="326.4192">Collaborator</text></g><!--entity System--><g class="entity" data-qualified-name="System" data-source-line="32" id="ent0007"><ellipse cx="1134.0716" cy="2256.0525" fill="#FFFFFF" rx="10.8" ry="10.8" style="stroke:#000000;stroke-width:0.675;"/><path d="M1134.0716,2266.8525 L1134.0716,2303.3025 M1116.5216,2277.6525 L1151.6216,2277.6525 M1134.0716,2303.3025 L1116.5216,2323.5525 M1134.0716,2303.3025 L1151.6216,2323.5525" fill="none" style="stroke:#000000;stroke-width:0.675;"/><text fill="#000000" font-family="sans-serif" font-size="18.9" lengthAdjust="spacing" textLength="70.4782" x="1098.8325" y="2343.1209">System</text></g><!--link Collaborator to AuthUser--><g class="link" data-entity-1="ent0004" data-entity-2="ent0003" data-link-type="extension" data-source-line="35" id="lnk8"><path d="M335.7585,251.2215 C407.9025,251.2215 521.208,251.2215 521.208,251.2215 C521.208,251.2215 521.208,209.493 521.208,157.1265" fill="none" id="Collaborator-to-AuthUser" style="stroke:#222222;stroke-width:1.62;"/><polygon fill="none" points="521.208,132.8265,513.108,157.1265,529.308,157.1265,521.208,132.8265" style="stroke:#222222;stroke-width:1.62;"/></g><!--link SeniorCollab to Collaborator--><g class="link" data-entity-1="ent0005" data-entity-2="ent0004" data-link-type="extension" data-source-line="36" id="lnk9"><path d="M124.983,2100.546 C178.2405,2100.546 248.508,2100.546 248.508,2100.546 C248.508,2100.546 248.508,642.7215 248.508,344.5605" fill="none" id="SeniorCollab-to-Collaborator" style="stroke:#222222;stroke-width:1.62;"/><polygon fill="none" points="248.508,320.2605,240.408,344.5605,256.608,344.5605,248.508,320.2605" style="stroke:#222222;stroke-width:1.62;"/></g><!--link JuniorCollab to Collaborator--><g class="link" data-entity-1="ent0006" data-entity-2="ent0004" data-link-type="extension" data-source-line="37" id="lnk10"><path d="M125.1315,268.38 C154.2645,268.38 165.078,268.38 194.2245,268.38" fill="none" id="JuniorCollab-to-Collaborator" style="stroke:#222222;stroke-width:1.62;"/><polygon fill="none" points="218.5245,268.38,194.2245,260.28,194.2245,276.48,218.5245,268.38" style="stroke:#222222;stroke-width:1.62;"/></g><!--link Guest to UC_SignUp--><g class="link" data-entity-1="ent0002" data-entity-2="ent0013" data-link-type="dependency" data-source-line="86" id="lnk42"><path d="M570.483,2296.08 C620.919,2296.08 721.008,2296.08 721.008,2296.08 C721.008,2296.08 721.008,1317.33 721.008,1317.33 C721.008,1317.33 756.6885,1317.33 793.2735,1317.33" fill="none" id="Guest-to-UC_SignUp" style="stroke:#222222;stroke-width:1.62;"/><polygon fill="#222222" points="801.3735,1317.33,789.2235,1311.93,794.6235,1317.33,789.2235,1322.73,801.3735,1317.33" style="stroke:#222222;stroke-width:1.62;"/></g><!--link Guest to UC_Login--><g class="link" data-entity-1="ent0002" data-entity-2="ent0014" data-link-type="dependency" data-source-line="87" id="lnk43"><path d="M570.375,2278.9215 C616.302,2278.9215 702.108,2278.9215 702.108,2278.9215 C702.108,2278.9215 702.108,1155.7215 702.108,1155.7215 C702.108,1155.7215 760.8735,1155.7215 804.762,1155.7215" fill="none" id="Guest-to-UC_Login" style="stroke:#222222;stroke-width:1.62;"/><polygon fill="#222222" points="812.862,1155.7215,800.712,1150.3215,806.112,1155.7215,800.712,1161.1215,812.862,1155.7215" style="stroke:#222222;stroke-width:1.62;"/></g><!--link Guest to UC_ViewLocation--><g class="link" data-entity-1="ent0002" data-entity-2="ent0023" data-link-type="dependency" data-source-line="88" id="lnk44"><path d="M570.483,2261.7495 C606.5685,2261.7495 664.308,2261.7495 664.308,2261.7495 C664.308,2261.7495 664.308,600.48 664.308,600.48 C664.308,600.48 665.01,600.48 653.859,600.48" fill="none" id="Guest-to-UC_ViewLocation" style="stroke:#222222;stroke-width:1.62;"/><polygon fill="#222222" points="645.759,600.48,657.909,605.88,652.509,600.48,657.909,595.08,645.759,600.48" style="stroke:#222222;stroke-width:1.62;"/></g><!--link Guest to UC_BrowsePublic--><g class="link" data-entity-1="ent0002" data-entity-2="ent0038" data-link-type="dependency" data-source-line="89" id="lnk45"><path d="M513.918,2296.08 C483.3405,2296.08 438.858,2296.08 438.858,2296.08 C438.858,2296.08 438.858,1751.3145 438.858,1751.3145 C438.858,1751.3145 436.0635,1751.3145 444.258,1751.3145" fill="none" id="Guest-to-UC_BrowsePublic" style="stroke:#222222;stroke-width:1.62;"/><polygon fill="#222222" points="452.358,1751.3145,440.208,1745.9145,445.608,1751.3145,440.208,1756.7145,452.358,1751.3145" style="stroke:#222222;stroke-width:1.62;"/></g><!--link AuthUser to UC_Login--><g class="link" data-entity-1="ent0003" data-entity-2="ent0014" data-link-type="dependency" data-source-line="92" id="lnk46"><path d="M609.5925,75.6135 C656.829,75.6135 711.558,75.6135 711.558,75.6135 C711.558,75.6135 711.558,1144.1385 711.558,1144.1385 C711.558,1144.1385 763.533,1144.1385 804.6135,1144.1385" fill="none" id="AuthUser-to-UC_Login" style="stroke:#222222;stroke-width:1.62;"/><polygon fill="#222222" points="812.7135,1144.1385,800.5635,1138.7385,805.9635,1144.1385,800.5635,1149.5385,812.7135,1144.1385" style="stroke:#222222;stroke-width:1.62;"/></g><!--link AuthUser to UC_Profile--><g class="link" data-entity-1="ent0003" data-entity-2="ent0017" data-link-type="dependency" data-source-line="93" id="lnk47"><path d="M609.5925,64.2465 C663.633,64.2465 730.458,64.2465 730.458,64.2465 C730.458,64.2465 730.458,989.28 730.458,989.28 C730.458,989.28 735.2505,989.28 752.5845,989.28" fill="none" id="AuthUser-to-UC_Profile" style="stroke:#222222;stroke-width:1.62;"/><polygon fill="#222222" points="760.6845,989.28,748.5345,983.88,753.9345,989.28,748.5345,994.68,760.6845,989.28" style="stroke:#222222;stroke-width:1.62;"/></g><!--link AuthUser to UC_SearchUsers--><g class="link" data-entity-1="ent0003" data-entity-2="ent0018" data-link-type="dependency" data-source-line="94" id="lnk48"><path d="M609.093,52.893 C666.468,52.893 739.908,52.893 739.908,52.893 C739.908,52.893 739.908,912.33 739.908,912.33 C739.908,912.33 747.3195,912.33 766.719,912.33" fill="none" id="AuthUser-to-UC_SearchUsers" style="stroke:#222222;stroke-width:1.62;"/><polygon fill="#222222" points="774.819,912.33,762.669,906.93,768.069,912.33,762.669,917.73,774.819,912.33" style="stroke:#222222;stroke-width:1.62;"/></g><!--link AuthUser to UC_Notifications--><g class="link" data-entity-1="ent0003" data-entity-2="ent0020" data-link-type="dependency" data-source-line="95" id="lnk49"><path d="M609.093,41.526 C672.3,41.526 757.458,41.526 757.458,41.526 C757.458,41.526 757.458,950.1435 757.458,1053.9855" fill="none" id="AuthUser-to-UC_Notifications" style="stroke:#222222;stroke-width:1.62;"/><polygon fill="#222222" points="757.458,1062.0855,762.858,1049.9355,757.458,1055.3355,752.058,1049.9355,757.458,1062.0855" style="stroke:#222222;stroke-width:1.62;"/></g><!--link AuthUser to UC_SearchLocations--><g class="link" data-entity-1="ent0003" data-entity-2="ent0022" data-link-type="dependency" data-source-line="96" id="lnk50"><path d="M609.471,18.792 C764.6265,18.792 1134.108,18.792 1134.108,18.792 C1134.108,18.792 1134.108,270.9855 1134.108,348.2595" fill="none" id="AuthUser-to-UC_SearchLocations" style="stroke:#222222;stroke-width:1.62;"/><polygon fill="#222222" points="1134.108,356.3595,1139.508,344.2095,1134.108,349.6095,1128.708,344.2095,1134.108,356.3595" style="stroke:#222222;stroke-width:1.62;"/></g><!--link AuthUser to UC_ViewLocation--><g class="link" data-entity-1="ent0003" data-entity-2="ent0023" data-link-type="dependency" data-source-line="97" id="lnk51"><path d="M475.011,104.652 C462.024,104.652 452.358,104.652 452.358,104.652 C452.358,104.652 452.358,503.766 452.358,580.122" fill="none" id="AuthUser-to-UC_ViewLocation" style="stroke:#222222;stroke-width:1.62;"/><polygon fill="#222222" points="452.358,588.222,457.758,576.072,452.358,581.472,446.958,576.072,452.358,588.222" style="stroke:#222222;stroke-width:1.62;"/></g><!--link AuthUser to UC_CreateList--><g class="link" data-entity-1="ent0003" data-entity-2="ent0024" data-link-type="dependency" data-source-line="98" id="lnk52"><path d="M564.408,132.7725 C564.408,204.2955 564.408,308.5155 564.408,350.433" fill="none" id="AuthUser-to-UC_CreateList" style="stroke:#222222;stroke-width:1.62;"/><polygon fill="#222222" points="564.408,358.533,569.808,346.383,564.408,351.783,559.008,346.383,564.408,358.533" style="stroke:#222222;stroke-width:1.62;"/></g><!--link AuthUser to UC_EditList--><g class="link" data-entity-1="ent0003" data-entity-2="ent0025" data-link-type="dependency" data-source-line="99" id="lnk53"><path d="M609.255,121.068 C620.109,121.068 627.858,121.068 627.858,121.068 C627.858,121.068 627.858,520.83 627.858,520.83 C627.858,520.83 619.2585,520.83 600.6015,520.83" fill="none" id="AuthUser-to-UC_EditList" style="stroke:#222222;stroke-width:1.62;"/><polygon fill="#222222" points="592.5015,520.83,604.6515,526.23,599.2515,520.83,604.6515,515.43,592.5015,520.83" style="stroke:#222222;stroke-width:1.62;"/></g><!--link AuthUser to UC_DeleteList--><g class="link" data-entity-1="ent0003" data-entity-2="ent0026" data-link-type="dependency" data-source-line="100" id="lnk54"><path d="M475.308,118.5435 C468.774,118.5435 464.508,118.5435 464.508,118.5435 C464.508,118.5435 464.508,447.93 464.508,447.93 C464.508,447.93 461.2545,447.93 468.5445,447.93" fill="none" id="AuthUser-to-UC_DeleteList" style="stroke:#222222;stroke-width:1.62;"/><polygon fill="#222222" points="476.6445,447.93,464.4945,442.53,469.8945,447.93,464.4945,453.33,476.6445,447.93" style="stroke:#222222;stroke-width:1.62;"/></g><!--link AuthUser to UC_AddPlace--><g class="link" data-entity-1="ent0003" data-entity-2="ent0027" data-link-type="dependency" data-source-line="101" id="lnk55"><path d="M609.4575,30.159 C700.218,30.159 850.608,30.159 850.608,30.159 C850.608,30.159 850.608,274.104 850.608,348.9345" fill="none" id="AuthUser-to-UC_AddPlace" style="stroke:#222222;stroke-width:1.62;"/><polygon fill="#222222" points="850.608,357.0345,856.008,344.8845,850.608,350.2845,845.208,344.8845,850.608,357.0345" style="stroke:#222222;stroke-width:1.62;"/></g><!--link AuthUser to UC_Sections--><g class="link" data-entity-1="ent0003" data-entity-2="ent0028" data-link-type="dependency" data-source-line="102" id="lnk56"><path d="M474.9705,76.8825 C439.722,76.8825 403.758,76.8825 403.758,76.8825 C403.758,76.8825 403.758,767.88 403.758,767.88 C403.758,767.88 411.0885,767.88 431.649,767.88" fill="none" id="AuthUser-to-UC_Sections" style="stroke:#222222;stroke-width:1.62;"/><polygon fill="#222222" points="439.749,767.88,427.599,762.48,432.999,767.88,427.599,773.28,439.749,767.88" style="stroke:#222222;stroke-width:1.62;"/></g><!--link AuthUser to UC_Reorder--><g class="link" data-entity-1="ent0003" data-entity-2="ent0029" data-link-type="dependency" data-source-line="103" id="lnk57"><path d="M474.9435,90.7605 C445.392,90.7605 417.258,90.7605 417.258,90.7605 C417.258,90.7605 417.258,684.18 417.258,684.18 C417.258,684.18 422.928,684.18 441.315,684.18" fill="none" id="AuthUser-to-UC_Reorder" style="stroke:#222222;stroke-width:1.62;"/><polygon fill="#222222" points="449.415,684.18,437.265,678.78,442.665,684.18,437.265,689.58,449.415,684.18" style="stroke:#222222;stroke-width:1.62;"/></g><!--link AuthUser to UC_InviteCollaborator--><g class="link" data-entity-1="ent0003" data-entity-2="ent0031" data-link-type="dependency" data-source-line="104" id="lnk58"><path d="M475.0785,62.991 C434.3895,62.991 390.258,62.991 390.258,62.991 C390.258,62.991 390.258,1465.83 390.258,1465.83 C390.258,1465.83 416.6505,1465.83 452.763,1465.83" fill="none" id="AuthUser-to-UC_InviteCollaborator" style="stroke:#222222;stroke-width:1.62;"/><polygon fill="#222222" points="460.863,1465.83,448.713,1460.43,454.113,1465.83,448.713,1471.23,460.863,1465.83" style="stroke:#222222;stroke-width:1.62;"/></g><!--link AuthUser to UC_ChangePerm--><g class="link" data-entity-1="ent0003" data-entity-2="ent0035" data-link-type="dependency" data-source-line="105" id="lnk59"><path d="M609.498,109.701 C641.871,109.701 673.758,109.701 673.758,109.701 C673.758,109.701 673.758,1656.18 673.758,1656.18 C673.758,1656.18 674.136,1656.18 662.4315,1656.18" fill="none" id="AuthUser-to-UC_ChangePerm" style="stroke:#222222;stroke-width:1.62;"/><polygon fill="#222222" points="654.3315,1656.18,666.4815,1661.58,661.0815,1656.18,666.4815,1650.78,654.3315,1656.18" style="stroke:#222222;stroke-width:1.62;"/></g><!--link AuthUser to UC_RemoveCollaborator--><g class="link" data-entity-1="ent0003" data-entity-2="ent0036" data-link-type="dependency" data-source-line="106" id="lnk60"><path d="M474.876,49.0995 C429.084,49.0995 376.758,49.0995 376.758,49.0995 C376.758,49.0995 376.758,1561.68 376.758,1561.68 C376.758,1561.68 418.824,1561.68 463.9005,1561.68" fill="none" id="AuthUser-to-UC_RemoveCollaborator" style="stroke:#222222;stroke-width:1.62;"/><polygon fill="#222222" points="472.0005,1561.68,459.8505,1556.28,465.2505,1561.68,459.8505,1567.08,472.0005,1561.68" style="stroke:#222222;stroke-width:1.62;"/></g><!--link AuthUser to UC_MakePublic--><g class="link" data-entity-1="ent0003" data-entity-2="ent0037" data-link-type="dependency" data-source-line="107" id="lnk61"><path d="M609.3765,98.3475 C645.705,98.3475 683.208,98.3475 683.208,98.3475 C683.208,98.3475 683.208,1896.48 683.208,1896.48 C683.208,1896.48 665.0235,1896.48 635.148,1896.48" fill="none" id="AuthUser-to-UC_MakePublic" style="stroke:#222222;stroke-width:1.62;"/><polygon fill="#222222" points="627.048,1896.48,639.198,1901.88,633.798,1896.48,639.198,1891.08,627.048,1896.48" style="stroke:#222222;stroke-width:1.62;"/></g><!--link AuthUser to UC_BrowsePublic--><g class="link" data-entity-1="ent0003" data-entity-2="ent0038" data-link-type="dependency" data-source-line="108" id="lnk62"><path d="M475.0245,35.208 C424.2645,35.208 363.258,35.208 363.258,35.208 C363.258,35.208 363.258,1736.5455 363.258,1736.5455 C363.258,1736.5455 399.5325,1736.5455 444.0825,1736.5455" fill="none" id="AuthUser-to-UC_BrowsePublic" style="stroke:#222222;stroke-width:1.62;"/><polygon fill="#222222" points="452.1825,1736.5455,440.0325,1731.1455,445.4325,1736.5455,440.0325,1741.9455,452.1825,1736.5455" style="stroke:#222222;stroke-width:1.62;"/></g><!--link AuthUser to UC_RateList--><g class="link" data-entity-1="ent0003" data-entity-2="ent0039" data-link-type="dependency" data-source-line="109" id="lnk63"><path d="M474.849,21.3165 C419.3775,21.3165 349.758,21.3165 349.758,21.3165 C349.758,21.3165 349.758,1820.88 349.758,1820.88 C349.758,1820.88 413.1,1820.88 468.909,1820.88" fill="none" id="AuthUser-to-UC_RateList" style="stroke:#222222;stroke-width:1.62;"/><polygon fill="#222222" points="477.009,1820.88,464.859,1815.48,470.259,1820.88,464.859,1826.28,477.009,1820.88" style="stroke:#222222;stroke-width:1.62;"/></g><!--link AuthUser to UC_SubmitReview--><g class="link" data-entity-1="ent0003" data-entity-2="ent0040" data-link-type="dependency" data-source-line="110" id="lnk64"><path d="M609.471,86.9805 C649.5525,86.9805 692.658,86.9805 692.658,86.9805 C692.658,86.9805 692.658,2058.21 692.658,2058.21 C692.658,2058.21 657.963,2058.21 618.0165,2058.21" fill="none" id="AuthUser-to-UC_SubmitReview" style="stroke:#222222;stroke-width:1.62;"/><polygon fill="#222222" points="609.9165,2058.21,622.0665,2063.61,616.6665,2058.21,622.0665,2052.81,609.9165,2058.21" style="stroke:#222222;stroke-width:1.62;"/></g><!--link Collaborator to UC_InviteAction--><g class="link" data-entity-1="ent0004" data-entity-2="ent0019" data-link-type="dependency" data-source-line="113" id="lnk65"><path d="M306.558,320.274 C306.558,520.776 306.558,1233.63 306.558,1233.63 C306.558,1233.63 605.07,1233.63 757.782,1233.63" fill="none" id="Collaborator-to-UC_InviteAction" style="stroke:#222222;stroke-width:1.62;"/><polygon fill="#222222" points="765.882,1233.63,753.732,1228.23,759.132,1233.63,753.732,1239.03,765.882,1233.63" style="stroke:#222222;stroke-width:1.62;"/></g><!--link Collaborator to UC_Notifications--><g class="link" data-entity-1="ent0004" data-entity-2="ent0020" data-link-type="dependency" data-source-line="114" id="lnk66"><path d="M336.204,285.552 C463.5765,285.552 753.408,285.552 753.408,285.552 C753.408,285.552 753.408,977.0085 753.408,1056.2535" fill="none" id="Collaborator-to-UC_Notifications" style="stroke:#222222;stroke-width:1.62;"/><polygon fill="#222222" points="753.408,1064.3535,758.808,1052.2035,753.408,1057.6035,748.008,1052.2035,753.408,1064.3535" style="stroke:#222222;stroke-width:1.62;"/></g><!--link Collaborator to UC_Chat--><g class="link" data-entity-1="ent0004" data-entity-2="ent0032" data-link-type="dependency" data-source-line="115" id="lnk67"><path d="M278.208,320.166 C278.208,606.4605 278.208,1982.88 278.208,1982.88 C278.208,1982.88 379.4175,1982.88 457.353,1982.88" fill="none" id="Collaborator-to-UC_Chat" style="stroke:#222222;stroke-width:1.62;"/><polygon fill="#222222" points="465.453,1982.88,453.303,1977.48,458.703,1982.88,453.303,1988.28,465.453,1982.88" style="stroke:#222222;stroke-width:1.62;"/></g><!--link SeniorCollab to UC_Propose--><g class="link" data-entity-1="ent0005" data-entity-2="ent0033" data-link-type="dependency" data-source-line="118" id="lnk68"><path d="M125.172,2147.58 C207.3465,2147.58 349.0695,2147.58 444.9735,2147.58" fill="none" id="SeniorCollab-to-UC_Propose" style="stroke:#222222;stroke-width:1.62;"/><polygon fill="#222222" points="453.0735,2147.58,440.9235,2142.18,446.3235,2147.58,440.9235,2152.98,453.0735,2147.58" style="stroke:#222222;stroke-width:1.62;"/></g><!--link SeniorCollab to UC_ApproveReject--><g class="link" data-entity-1="ent0005" data-entity-2="ent0034" data-link-type="dependency" data-source-line="119" id="lnk69"><path d="M125.2665,2119.5135 C269.649,2119.5135 631.9755,2119.5135 779.8275,2119.5135" fill="none" id="SeniorCollab-to-UC_ApproveReject" style="stroke:#222222;stroke-width:1.62;"/><polygon fill="#222222" points="787.9275,2119.5135,775.7775,2114.1135,781.1775,2119.5135,775.7775,2124.9135,787.9275,2119.5135" style="stroke:#222222;stroke-width:1.62;"/></g><!--reverse link UC_VerifyEmail to System--><g class="link" data-entity-1="ent0015" data-entity-2="ent0007" data-link-type="dependency" data-source-line="122" id="lnk71"><path d="M1146.258,1343.25 C1146.258,1455.8265 1146.258,2061.2745 1146.258,2244.429" fill="none" id="UC_VerifyEmail-backto-System" style="stroke:#222222;stroke-width:1.62;"/><polygon fill="#222222" points="1146.258,1335.15,1140.858,1347.3,1146.258,1341.9,1151.658,1347.3,1146.258,1335.15" style="stroke:#222222;stroke-width:1.62;"/></g><!--reverse link UC_VerifyPwd to System--><g class="link" data-entity-1="ent0016" data-entity-2="ent0007" data-link-type="dependency" data-source-line="123" id="lnk73"><path d="M1057.158,1212.2865 C1057.158,1314.5355 1057.158,2313.252 1057.158,2313.252 C1057.158,2313.252 1078.2315,2313.252 1098.3195,2313.252" fill="none" id="UC_VerifyPwd-backto-System" style="stroke:#222222;stroke-width:1.62;"/><polygon fill="#222222" points="1057.158,1204.1865,1051.758,1216.3365,1057.158,1210.9365,1062.558,1216.3365,1057.158,1204.1865" style="stroke:#222222;stroke-width:1.62;"/></g><!--reverse link UC_Notifications to System--><g class="link" data-entity-1="ent0020" data-entity-2="ent0007" data-link-type="dependency" data-source-line="124" id="lnk75"><path d="M947.808,1086.507 C947.808,1185.5835 947.808,2330.4105 947.808,2330.4105 C947.808,2330.4105 1044.036,2330.4105 1098.1575,2330.4105" fill="none" id="UC_Notifications-backto-System" style="stroke:#222222;stroke-width:1.62;"/><polygon fill="#222222" points="947.808,1078.407,942.408,1090.557,947.808,1085.157,953.208,1090.557,947.808,1078.407" style="stroke:#222222;stroke-width:1.62;"/></g><!--reverse link UC_DeleteReview to System--><g class="link" data-entity-1="ent0041" data-entity-2="ent0007" data-link-type="dependency" data-source-line="125" id="lnk77"><path d="M938.0475,2055.78 C1018.656,2055.78 1123.308,2055.78 1123.308,2055.78 C1123.308,2055.78 1123.308,2173.2705 1123.308,2243.943" fill="none" id="UC_DeleteReview-backto-System" style="stroke:#222222;stroke-width:1.62;"/><polygon fill="#222222" points="929.9475,2055.78,942.0975,2061.18,936.6975,2055.78,942.0975,2050.38,929.9475,2055.78" style="stroke:#222222;stroke-width:1.62;"/></g><!--link UC_CreateList to UC_AddPlace--><g class="link" data-entity-1="ent0024" data-entity-2="ent0027" data-link-type="dependency" data-source-line="130" id="lnk78"><path d="M608.6205,375.03 C654.2505,375.03 707.1435,375.03 756.432,375.03" fill="none" id="UC_CreateList-to-UC_AddPlace" style="stroke:#222222;stroke-width:1.62;stroke-dasharray:9.45,9.45;"/><polygon fill="#222222" points="764.532,375.03,752.382,369.63,757.782,375.03,752.382,380.43,764.532,375.03" style="stroke:#222222;stroke-width:1.62;"/><text fill="#000000" font-family="sans-serif" font-size="18.9" lengthAdjust="spacing" textLength="91.6022" x="594.7695" y="369.6234">&#171;include&#187;</text></g><!--link UC_AddPlace to UC_SearchLocations--><g class="link" data-entity-1="ent0027" data-entity-2="ent0022" data-link-type="dependency" data-source-line="131" id="lnk79"><path d="M936.9405,377.73 C971.5005,377.73 1003.1445,377.73 1037.8395,377.73" fill="none" id="UC_AddPlace-to-UC_SearchLocations" style="stroke:#222222;stroke-width:1.62;stroke-dasharray:9.45,9.45;"/><polygon fill="#222222" points="1045.9395,377.73,1033.7895,372.33,1039.1895,377.73,1033.7895,383.13,1045.9395,377.73" style="stroke:#222222;stroke-width:1.62;"/><text fill="#000000" font-family="sans-serif" font-size="18.9" lengthAdjust="spacing" textLength="91.6022" x="899.64" y="372.3234">&#171;include&#187;</text></g><!--link UC_InviteCollaborator to UC_Notifications--><g class="link" data-entity-1="ent0031" data-entity-2="ent0020" data-link-type="dependency" data-source-line="132" id="lnk80"><path d="M623.7405,1465.83 C683.694,1465.83 754.758,1465.83 754.758,1465.83 C754.758,1465.83 754.758,1145.9745 754.758,1088.3295" fill="none" id="UC_InviteCollaborator-to-UC_Notifications" style="stroke:#222222;stroke-width:1.62;stroke-dasharray:9.45,9.45;"/><polygon fill="#222222" points="754.758,1080.2295,749.358,1092.3795,754.758,1086.9795,760.158,1092.3795,754.758,1080.2295" style="stroke:#222222;stroke-width:1.62;"/><text fill="#000000" font-family="sans-serif" font-size="18.9" lengthAdjust="spacing" textLength="91.6022" x="662.958" y="1357.4319">&#171;include&#187;</text></g><!--link UC_SubmitReview to UC_DeleteReview--><g class="link" data-entity-1="ent0040" data-entity-2="ent0041" data-link-type="dependency" data-source-line="133" id="lnk81"><path d="M622.6875,2066.526 C672.786,2066.526 728.3385,2066.526 775.575,2066.526" fill="none" id="UC_SubmitReview-to-UC_DeleteReview" style="stroke:#222222;stroke-width:1.62;stroke-dasharray:9.45,9.45;"/><polygon fill="#222222" points="783.675,2066.526,771.525,2061.126,776.925,2066.526,771.525,2071.926,783.675,2066.526" style="stroke:#222222;stroke-width:1.62;"/><text fill="#000000" font-family="sans-serif" font-size="18.9" lengthAdjust="spacing" textLength="91.6022" x="611.3745" y="2061.1194">&#171;include&#187;</text></g><!--link UC_SignUp to UC_VerifyEmail--><g class="link" data-entity-1="ent0013" data-entity-2="ent0015" data-link-type="dependency" data-source-line="135" id="lnk82"><path d="M899.0325,1317.33 C943.8795,1317.33 1002.861,1317.33 1053.891,1317.33" fill="none" id="UC_SignUp-to-UC_VerifyEmail" style="stroke:#222222;stroke-width:1.62;stroke-dasharray:9.45,9.45;"/><polygon fill="#222222" points="1061.991,1317.33,1049.841,1311.93,1055.241,1317.33,1049.841,1322.73,1061.991,1317.33" style="stroke:#222222;stroke-width:1.62;"/><text fill="#000000" font-family="sans-serif" font-size="18.9" lengthAdjust="spacing" textLength="88.9537" x="891.405" y="1311.9234">&#171;extend&#187;</text></g><!--link UC_Login to UC_VerifyPwd--><g class="link" data-entity-1="ent0014" data-entity-2="ent0016" data-link-type="dependency" data-source-line="136" id="lnk83"><path d="M850.608,1167.7635 C850.608,1178.577 850.608,1190.322 850.608,1190.322 C850.608,1190.322 960.6195,1190.322 1044.36,1190.322" fill="none" id="UC_Login-to-UC_VerifyPwd" style="stroke:#222222;stroke-width:1.62;stroke-dasharray:9.45,9.45;"/><polygon fill="#222222" points="1052.46,1190.322,1040.31,1184.922,1045.71,1190.322,1040.31,1195.722,1052.46,1190.322" style="stroke:#222222;stroke-width:1.62;"/><text fill="#000000" font-family="sans-serif" font-size="18.9" lengthAdjust="spacing" textLength="88.9537" x="941.6115" y="1209.2154">&#171;extend&#187;</text></g><!--link UC_Propose to UC_ApproveReject--><g class="link" data-entity-1="ent0033" data-entity-2="ent0034" data-link-type="dependency" data-source-line="137" id="lnk84"><path d="M631.26,2147.58 C672.1245,2147.58 712.368,2147.58 753.219,2147.58" fill="none" id="UC_Propose-to-UC_ApproveReject" style="stroke:#222222;stroke-width:1.62;stroke-dasharray:9.45,9.45;"/><polygon fill="#222222" points="761.319,2147.58,749.169,2142.18,754.569,2147.58,749.169,2152.98,761.319,2147.58" style="stroke:#222222;stroke-width:1.62;"/><text fill="#000000" font-family="sans-serif" font-size="18.9" lengthAdjust="spacing" textLength="88.9537" x="607.1895" y="2142.1734">&#171;extend&#187;</text></g><?plantuml-src ZLVRRkCs47tNLmnIOBlxu6mtsw95iGtWEDaYHIw6PRTT8431I6ERZKGA51tNRVFl7PAIJ4gqKmT8h3bdoE5SZfW2bngq1CLNQmqvLvXfBaLIPwn0-73wyRiagP-ug9XY9THhbiij5ojOig963wbOziHMcEeTkPb5c5WLFg7W0lMkGf1AhwK7Z9MIs_cQPqy2wvgsFFF079TiK-ZFKkYK_qq1VUk1cnepLkCUz3rPfgMA-mcPOuqLdFtW6HKJJyRu_JV9S8iBEjrAoOt89xAG2dvRSuqHcbGvAaUvACZ7Nx_DoVyZlR9Xa-vZQxMKtafVVHwR7pzJfW0DU6O__JGUsyOHek4cNyDFXpw4ZIVp-rbwb6GNXvEVDrZh4s0rs6-jURpHQnIQPqnZ_Y0MDIfBCdRpqF8efe8zIiNeoH9yGqjAKN2f7iI0x01dRic_R0wG7H2IqrsjiNHhsQycCMEBhJagfhBrBl5NWj7et_FzAVm071J4xsyPWLyfGlebdL_TmiNzukvoFFjobDrr9vpC5Qycb7l5YXFu9qcWRJSuCJ73BHFqK183ta0gCqvoOJCm_K1qe4ypCfGUlXAmg2owcFnX7XTLIBcHAxWMBOEUk0W9lwBYonrSbOmNBStPh2bAdhAwtb9ZX_pfDk-nEMxXFLpbNCDKoIKliFLe7dl7GLDGC5cekpDPcpM5v76MOQLf-Hd-ISbz4DVYcMjc5BZrjHOSErKEd6UO8Nz6k9EQByqG4AFRCZ2ItqjGerjMLKR5ty0DhtLJcRD1PTnHRcHlRMVlp95yjHXSegRyTvu6RB7GRQAGfjY6qvAToLX2gYs5JpI68UqI2-ojw4n3wZZFOKgwXkPDw3iGOEqXtJMt9P8wPBtSP96apD0gg7Ev9Wde-0qogD1-XaqQtz1CboKDkjwvMdtirygrYMsx1q6dsFjZs4c1E8GbM3CDMwxNeQvreHeyzA01g2Hz8KIiiFRcmfXxEQug9QbRzxtUyse83Xr4Hin0rnx455N9wzeR5KSpzdxsIreuejOs_mOxd9HRzjHKUhfvB7ZM-XcxiuJy2tgNqby7UTD5BWwAESrCwxEWysRHraytZoKr_moVQP2wbhD6PukEG4Xtnex-ahoy-g9Eq_l9zNX-VN-NmjkI2rwo0fZ88IkGYNT7tGbqBstx6qRseZawzwH-23Y57ze3-HZ2GO9DtFxzm8u6l7qqYTcOhnchs2ClkEPOlqlQjsqaZYZKQdyKzFK-IWZL-SWQUv6DaeA4H1cUY4RnJZkZg2UOKRpJnmD7o8x4tYfV58neLVnu-v4_iCbWlACyRvoZUD1QyPsEfZcOKMfDFw9HNM5csg5t2Hoaexa476I5NNMGPdNSNFtilJ881V0lkj919RUcTSEBPzZyLk0F4a8jDtlPYoyyiuBdBhxtRADbsSJQmAE2_XjjEjkxlHr2pLrjY8LP6EA1_hsYVDTtavl5vPMv__q-lxgxF4eFfWrEJuC9WH_XqoSkicAJu_bvuYCDipVmGuVXJBIkmP67ZdxpjIv-5deUIIVDBTahXkLIbw38tU9M8qCYrML0QwyARLhy1Wd8_m40?></g></svg>